<svg xmlns="http://www.w3.org/2000/svg" viewBox="0 0 48 48"><title>874_ch_h</title><rect width="48" height="48" fill="none"/><line x1="11" y1="28.5" x2="20" y2="28.5" fill="none" stroke="#000" stroke-linecap="round" stroke-linejoin="round" stroke-width="2"/><line x1="11" y1="33.5" x2="15" y2="33.5" fill="none" stroke="#000" stroke-linecap="round" stroke-linejoin="round" stroke-width="2"/><line x1="19" y1="33.5" x2="19" y2="33.5" fill="none" stroke="#000" stroke-linecap="round" stroke-linejoin="round" stroke-width="2"/><path d="M5,43H22a9,9,0,0,0,9-9V28a9,9,0,0,0-9-9H10a9,9,0,0,0-9,9V47Z" fill="none" stroke="#000" stroke-linecap="round" stroke-linejoin="round" stroke-width="2"/><line x1="37" y1="12.5" x2="28" y2="12.5" fill="none" stroke="#000" stroke-linecap="round" stroke-linejoin="round" stroke-width="2"/><line x1="37" y1="17.5" x2="33" y2="17.5" fill="none" stroke="#000" stroke-linecap="round" stroke-linejoin="round" stroke-width="2"/><path d="M17,16V12a9,9,0,0,1,9-9H38a9,9,0,0,1,9,9V31l-4-4H34" fill="none" stroke="#000" stroke-linecap="round" stroke-linejoin="round" stroke-width="2"/></svg>