<?xml version="1.0" encoding="UTF-8" standalone="no"?>
<!DOCTYPE svg PUBLIC "-//W3C//DTD SVG 20010904//EN"
              "http://www.w3.org/TR/2001/REC-SVG-20010904/DTD/svg10.dtd">

<svg xmlns="http://www.w3.org/2000/svg"
     width="5.33333in" height="5.33333in"
     viewBox="0 0 480 480">
  <path id="名前なし"
        fill="none" stroke="black" stroke-width="1"
        d="M 6.00,2.00" />
  <path id="インポートされたパス #7"
        fill="none" stroke="black" stroke-width="1"
        d="M 0.00,0.00
           C 0.00,0.00 0.00,480.00 0.00,480.00
             0.00,480.00 480.00,480.00 480.00,480.00
             480.00,480.00 480.00,0.00 480.00,0.00
             480.00,0.00 0.00,0.00 0.00,0.00 Z" />
  <path id="インポートされたパス #6"
        fill="none" stroke="black" stroke-width="1"
        d="M 200.00,285.00
           C 200.00,285.00 110.00,285.00 110.00,285.00" />
  <path id="インポートされたパス #5"
        fill="none" stroke="black" stroke-width="1"
        d="M 150.00,335.00
           C 150.00,335.00 110.00,335.00 110.00,335.00" />
  <path id="インポートされたパス #4"
        fill="none" stroke="black" stroke-width="1"
        d="M 190.00,335.00
           C 190.00,335.00 190.00,335.00 190.00,335.00" />
  <path id="名前なし #1"
        fill="none" stroke="black" stroke-width="1"
        d="M 237.00,238.00" />
  <path id="インポートされたパス #3"
        fill="none" stroke="black" stroke-width="1"
        d="M 10.00,470.00
           C 10.00,470.00 10.00,280.00 10.00,280.00
             10.00,230.29 50.29,190.00 100.00,190.00
             100.00,190.00 220.00,190.00 220.00,190.00
             269.71,190.00 310.00,230.29 310.00,280.00
             310.00,280.00 310.00,340.00 310.00,340.00
             310.00,389.71 269.71,430.00 220.00,430.00
             220.00,430.00 50.00,430.00 50.00,430.00
             50.00,430.00 10.00,470.00 10.00,470.00 Z" />
  <path id="インポートされたパス #2"
        fill="none" stroke="black" stroke-width="1"
        d="M 280.00,125.00
           C 280.00,125.00 370.00,125.00 370.00,125.00" />
  <path id="インポートされたパス #1"
        fill="none" stroke="black" stroke-width="1"
        d="M 330.00,175.00
           C 330.00,175.00 370.00,175.00 370.00,175.00" />
  <path id="インポートされたパス"
        fill="none" stroke="black" stroke-width="1"
        d="M 340.00,270.00
           C 340.00,270.00 430.00,270.00 430.00,270.00
             430.00,270.00 470.00,310.00 470.00,310.00
             470.00,310.00 470.00,120.00 470.00,120.00
             470.00,70.29 429.71,30.00 380.00,30.00
             380.00,30.00 260.00,30.00 260.00,30.00
             210.29,30.00 170.00,70.29 170.00,120.00
             170.00,120.00 170.00,160.00 170.00,160.00" />
</svg>
