<?xml version="1.0" standalone="no"?>
<!DOCTYPE svg PUBLIC "-//W3C//DTD SVG 20010904//EN"
 "http://www.w3.org/TR/2001/REC-SVG-20010904/DTD/svg10.dtd">
<svg version="1.0" xmlns="http://www.w3.org/2000/svg"
 width="256.000000pt" height="256.000000pt" viewBox="0 0 256.000000 256.000000"
 preserveAspectRatio="xMidYMid meet">
<metadata>
Created by potrace 1.11, written by Peter Selinger 2001-2013
</metadata>
<g transform="translate(0.000000,256.000000) scale(0.100000,-0.100000)"
fill="#000000" stroke="none">
<path d="M2155 1908 c-71 -73 -225 -230 -343 -349 l-214 -216 -37 -171 c-37
-167 -37 -171 -17 -167 12 3 90 20 175 39 l153 33 344 344 344 344 -138 138
-138 137 -129 -132z m-102 -360 l-297 -298 -33 32 -33 32 297 298 297 298 33
-32 33 -32 -297 -298z m350 244 l27 -28 -298 -297 -298 -297 -32 33 -33 34
298 292 c164 160 301 291 304 291 3 0 17 -13 32 -28z m-597 -630 c-2 -2 -28
-10 -57 -17 -48 -13 -55 -13 -72 3 -16 14 -18 25 -13 65 12 85 13 85 82 16 35
-35 62 -65 60 -67z"/>
<path d="M630 1945 c-198 -37 -296 -88 -333 -172 -9 -21 -69 -220 -132 -443
-64 -223 -126 -434 -137 -470 -29 -87 -29 -185 0 -232 12 -19 39 -44 60 -56
60 -33 122 -29 260 18 141 48 247 64 367 57 159 -11 325 -53 361 -92 20 -21
32 -24 119 -27 89 -2 98 -1 113 19 31 40 207 88 361 99 123 8 222 -7 374 -57
147 -48 205 -51 265 -12 23 15 50 43 59 63 31 62 22 124 -62 415 -43 149 -81
273 -84 277 -4 5 -26 -12 -50 -36 l-44 -45 47 -185 c52 -208 54 -235 26 -261
-26 -24 -59 -22 -149 9 -228 79 -471 72 -667 -19 -42 -19 -85 -35 -94 -35 -16
0 -18 24 -24 308 -3 169 -9 404 -12 522 l-6 216 24 11 c73 33 206 56 323 56
133 0 299 -31 346 -64 26 -18 26 -18 58 15 l32 33 -70 31 c-124 56 -194 67
-401 66 -162 -1 -197 -4 -280 -25 l-95 -25 -80 24 c-102 31 -355 40 -475 17z
m295 -80 c134 -20 202 -41 209 -63 3 -10 2 -207 -4 -437 -5 -231 -10 -462 -10
-514 0 -108 7 -105 -115 -53 -102 42 -187 62 -302 69 -121 7 -221 -7 -347 -49
-48 -16 -101 -30 -117 -30 -37 -1 -69 27 -69 61 0 15 44 202 99 416 54 215
104 413 110 441 23 96 78 129 269 159 116 18 159 18 277 0z"/>
</g>
</svg>
